#!OML:ASF X:\für Bonn\!DataBase\2005_08_11_Bastian_Final\c3d\Bastian.ASF
:FULLY-SPECIFIED
:DEGREES
286
root 12.2939 17.4392 -2.98986 184.389 76.2609 -167.133
lowerback 13.2144 -1.53729 3.6273
upperback 11.7407 -0.827885 1.88873
thorax 4.99719 0.146055 0.0624383
lowerneck -4.67934 -8.42323 -6.96147
upperneck 0.949227 -11.1769 11.4529
head 2.09625 -5.39342 4.10913
rclavicle -3.10104e-014 1.03368e-014
rhumerus -33.3788 17.3096 -90.251
rradius 28.3043
rwrist -7.86693
rhand -17.4759 1.48745
rfingers 7.12502
rthumb 8.77611 -28.3101
lclavicle -3.10104e-014 1.03368e-014
lhumerus -16.083 -15.6727 88.0206
lradius 28.8899
lwrist 18.4925
lhand -13.1023 -9.16223
lfingers 7.12502
lthumb 12.9946 20.4131
rfemur -0.997251 -1.37598 28.0973
rtibia 31.8084
rfoot -17.0085 -11.2619
rtoes 4.65506
lfemur -4.54813 -0.30082 -13.918
ltibia 50.6588
lfoot -12.0975 -2.42021
ltoes -28.4592
287
root 12.3474 17.4428 -2.98017 184.236 76.2855 -167.226
lowerback 13.0474 -1.47731 3.54891
upperback 11.6658 -0.776211 1.83594
thorax 5.00528 0.162094 0.0437178
lowerneck -4.41365 -8.38249 -6.96229
upperneck 1.10801 -11.1448 11.3698
head 2.09165 -5.38494 4.0946
rclavicle -1.53064e-014 8.74653e-015
rhumerus -33.3841 17.0366 -90.329
rradius 28.2188
rwrist -7.91991
rhand -17.5194 1.42808
rfingers 7.12502
rthumb 8.73414 -28.3712
lclavicle -1.53064e-014 8.74653e-015
lhumerus -16.3736 -15.0332 88.0276
lradius 28.4357
lwrist 18.4572
lhand -13.0805 -9.11414
lfingers 7.12502
lthumb 13.0155 20.4598
rfemur -0.564341 -1.36814 28.1508
rtibia 31.4891
rfoot -17.0588 -11.2723
rtoes 4.80173
lfemur -5.44209 -0.150323 -13.8825
ltibia 51.8924
lfoot -12.133 -2.42075
ltoes -26.8858
288
root 12.4008 17.445 -2.97066 184.077 76.2976 -167.305
lowerback 12.9053 -1.41328 3.47377
upperback 11.604 -0.715068 1.79044
thorax 5.01502 0.184102 0.0306844
lowerneck -4.15268 -8.35148 -6.95192
upperneck 1.27409 -11.1262 11.2856
head 2.09055 -5.38269 4.07683
rclavicle 5.46658e-015 1.23246e-014
rhumerus -33.3147 16.601 -90.3338
rradius 28.0415
rwrist -7.80776
rhand -17.5208 1.44346
rfingers 7.12502
rthumb 8.73282 -28.3559
lclavicle 5.46658e-015 1.23246e-014
lhumerus -16.6269 -14.4746 88.0297
lradius 27.9533
lwrist 18.486
lhand -13.0776 -9.04941
lfingers 7.12502
lthumb 13.0184 20.5244
rfemur -0.133566 -1.36258 28.2105
rtibia 31.2025
rfoot -17.1222 -11.2916
rtoes 5.0626
lfemur -6.27766 0.0128659 -13.8533
ltibia 52.9507
lfoot -12.2195 -2.46475
ltoes -25.3986
289
root 12.4535 17.4441 -2.96266 183.934 76.3364 -167.372
lowerback 12.7888 -1.34762 3.41073
upperback 11.544 -0.648369 1.74526
thorax 5.013 0.209923 0.0111465
lowerneck -3.8931 -8.32935 -6.97353
upperneck 1.40523 -11.1157 11.2246
head 2.0833 -5.38478 4.07108
rclavicle 5.86415e-015 -3.77691e-014
rhumerus -33.2721 16.3013 -90.3617
rradius 27.9222
rwrist -7.73794
rhand -17.5164 1.42243
rfingers 7.12502
rthumb 8.73703 -28.3767
lclavicle 5.86415e-015 -3.77691e-014
lhumerus -16.8536 -13.7612 88.0297
lradius 27.4116
lwrist 18.3294
lhand -13.0423 -9.03745
lfingers 7.12502
lthumb 13.0524 20.5342
rfemur 0.282508 -1.32971 28.2631
rtibia 30.9522
rfoot -17.2082 -11.2831
rtoes 5.44397
lfemur -7.06479 0.164047 -13.8426
ltibia 53.8237
lfoot -12.377 -2.54449
ltoes -24.2197
290
root 12.5057 17.4387 -2.95581 183.745 76.3744 -167.504
lowerback 12.6753 -1.27295 3.37358
upperback 11.4734 -0.567605 1.67427
thorax 4.9978 0.244846 -0.0510693
lowerneck -3.6134 -8.30633 -6.94701
upperneck 1.52804 -11.1056 11.1541
head 2.06712 -5.38744 4.0562
rclavicle 9.93923e-016 -3.89618e-014
rhumerus -33.2068 15.9155 -90.4052
rradius 27.7638
rwrist -7.60768
rhand -17.4968 1.37786
rfingers 7.12502
rthumb 8.75592 -28.4205
lclavicle 9.93923e-016 -3.89618e-014
lhumerus -17.1096 -13.2719 88.0072
lradius 26.8971
lwrist 18.3261
lhand -13.0313 -8.9673
lfingers 7.12502
lthumb 13.063 20.6036
rfemur 0.646823 -1.34137 28.2874
rtibia 30.7492
rfoot -17.2906 -11.2562
rtoes 5.55794
lfemur -7.82707 0.312035 -13.8497
ltibia 54.5066
lfoot -12.5364 -2.70944
ltoes -23.079
291
root 12.5583 17.4348 -2.94941 183.736 76.4266 -167.48
lowerback 12.5542 -1.19669 3.35223
upperback 11.4032 -0.484062 1.63517
thorax 4.98782 0.281103 -0.0885989
lowerneck -3.37407 -8.2931 -7.00525
upperneck 1.64699 -11.1056 11.1626
head 2.06681 -5.39283 4.07552
rclavicle -1.78906e-014 3.1408e-014
rhumerus -33.0983 15.4766 -90.3728
rradius 27.5772
rwrist -7.36557
rhand -17.459 1.39426
rfingers 7.12502
rthumb 8.79243 -28.4026
lclavicle -1.78906e-014 3.1408e-014
lhumerus -17.3535 -12.7036 87.9951
lradius 26.3281
lwrist 18.2227
lhand -13.0044 -8.97119
lfingers 7.12502
lthumb 13.0889 20.5981
rfemur 0.970471 -1.35509 28.3441
rtibia 30.5723
rfoot -17.3999 -11.2094
rtoes 5.68704
lfemur -8.58973 0.48428 -13.8308
ltibia 55.0348
lfoot -12.6933 -2.89982
ltoes -22.4576
292
root 12.6094 17.431 -2.94475 183.574 76.4984 -167.603
lowerback 12.5053 -1.11971 3.31008
upperback 11.3126 -0.397575 1.58927
thorax 4.91669 0.316497 -0.121908
lowerneck -3.16349 -8.27885 -7.06313
upperneck 1.84101 -11.1069 11.1138
head 2.08993 -5.39774 4.07494
rclavicle 2.41523e-014 9.14409e-015
rhumerus -33.0595 15.2405 -90.4034
rradius 27.458
rwrist -7.31344
rhand -17.3907 1.35498
rfingers 7.12502
rthumb 8.85831 -28.4391
lclavicle 2.41523e-014 9.14409e-015
lhumerus -17.5937 -12.0362 87.9887
lradius 25.686
lwrist 18.0372
lhand -12.9385 -8.99057
lfingers 7.12502
lthumb 13.1524 20.5746
rfemur 1.2954 -1.34709 28.3573
rtibia 30.4184
rfoot -17.4831 -11.1889
rtoes 5.8198
lfemur -9.33013 0.689938 -13.8722
ltibia 55.4166
lfoot -12.8432 -3.10568
ltoes -22.3175
293
root 12.6594 17.4283 -2.94025 183.624 76.5971 -167.521
lowerback 12.4934 -1.0406 3.33024
upperback 11.1982 -0.302401 1.54018
thorax 4.8001 0.358974 -0.194395
lowerneck -2.91943 -8.25973 -7.12709
upperneck 2.02416 -11.1034 11.1131
head 2.10717 -5.40038 4.09158
rclavicle -5.18828e-014 2.94201e-014
rhumerus -33.0209 14.9084 -90.4212
rradius 27.3097
rwrist -7.08473
rhand -17.332 1.36827
rfingers 7.12502
rthumb 8.91501 -28.4234
lclavicle -5.18828e-014 2.94201e-014
lhumerus -17.9281 -11.3826 87.9627
lradius 25.1157
lwrist 17.846
lhand -12.8941 -9.02151
lfingers 7.12502
lthumb 13.1953 20.5409
rfemur 1.60269 -1.34641 28.4015
rtibia 30.2494
rfoot -17.5956 -11.0755
rtoes 6.12028
lfemur -10.0817 0.907153 -13.8757
ltibia 55.6945
lfoot -12.9283 -3.27607
ltoes -22.3568
294
root 12.7097 17.4264 -2.93685 183.551 76.732 -167.562
lowerback 12.5308 -0.934635 3.33878
upperback 11.0653 -0.170513 1.46481
thorax 4.63804 0.418805 -0.291438
lowerneck -2.62253 -8.25465 -7.1167
upperneck 2.16104 -11.1186 11.0734
head 2.09735 -5.41478 4.08751
rclavicle -6.65929e-015 3.57812e-015
rhumerus -33.0305 14.5474 -90.4675
rradius 27.1936
rwrist -6.86609
rhand -17.2137 1.3796
rfingers 7.12502
rthumb 9.02912 -28.4072
lclavicle -6.65929e-015 3.57812e-015
lhumerus -18.3368 -10.8928 87.9168
lradius 24.6217
lwrist 17.7425
lhand -12.7946 -8.96332
lfingers 7.12502
lthumb 13.2912 20.5929
rfemur 1.91251 -1.30922 28.4164
rtibia 30.0767
rfoot -17.664 -10.993
rtoes 6.22104
lfemur -10.806 1.1922 -13.9205
ltibia 55.8559
lfoot -12.981 -3.48275
ltoes -21.9832
295
root 12.7611 17.4239 -2.93389 183.674 76.8642 -167.415
lowerback 12.545 -0.845746 3.38989
upperback 10.9406 -0.0586331 1.40228
thorax 4.49788 0.471299 -0.397141
lowerneck -2.37679 -8.24037 -7.14244
upperneck 2.32456 -11.1203 11.0535
head 2.10571 -5.42028 4.09287
rclavicle 2.89232e-014 -4.77083e-015
rhumerus -33.0482 14.2804 -90.5289
rradius 27.1228
rwrist -6.7263
rhand -17.1211 1.40861
rfingers 7.12502
rthumb 9.11849 -28.3743
lclavicle 2.89232e-014 -4.77083e-015
lhumerus -18.7238 -10.3194 87.8638
lradius 24.073
lwrist 17.5878
lhand -12.7277 -9.00136
lfingers 7.12502
lthumb 13.3557 20.5506
rfemur 2.23171 -1.30952 28.466
rtibia 29.8741
rfoot -17.7367 -10.8713
rtoes 6.5291
lfemur -11.5312 1.47303 -13.9305
ltibia 55.9347
lfoot -12.9786 -3.66084
ltoes -21.1203
296
root 12.8137 17.4215 -2.93077 183.683 76.9845 -167.372
lowerback 12.5556 -0.749765 3.40976
upperback 10.8389 0.0619036 1.34223
thorax 4.38551 0.527682 -0.483255
lowerneck -2.12434 -8.24175 -7.17554
upperneck 2.45776 -11.1416 11.0518
head 2.1073 -5.43595 4.1047
rclavicle 1.33186e-014 -2.98177e-015
rhumerus -33.0068 13.9601 -90.5533
rradius 27.0099
rwrist -6.45121
rhand -17.0626 1.46703
rfingers 7.12502
rthumb 9.17496 -28.3134
lclavicle 1.33186e-014 -2.98177e-015
lhumerus -19.1071 -9.91093 87.8171
lradius 23.5639
lwrist 17.5279
lhand -12.7096 -8.93008
lfingers 7.12502
lthumb 13.3731 20.6207
rfemur 2.57341 -1.2627 28.5102
rtibia 29.6483
rfoot -17.783 -10.8355
rtoes 6.59423
lfemur -12.2329 1.7554 -13.9721
ltibia 55.915
lfoot -12.9135 -3.84581
ltoes -20.3104
297
root 12.8698 17.4195 -2.92775 183.824 77.1054 -167.177
lowerback 12.5784 -0.662147 3.43034
upperback 10.7481 0.173068 1.30879
thorax 4.27858 0.57928 -0.541086
lowerneck -1.92871 -8.25008 -7.2256
upperneck 2.60999 -11.1698 11.0216
head 2.12369 -5.45383 4.10741
rclavicle -6.95746e-016 2.24627e-014
rhumerus -32.9856 13.7881 -90.5816
rradius 26.9673
rwrist -6.34186
rhand -16.9958 1.51439
rfingers 7.12502
rthumb 9.23942 -28.2632
lclavicle -6.95746e-016 2.24627e-014
lhumerus -19.4502 -9.37147 87.7717
lradius 22.9773
lwrist 17.3358
lhand -12.6828 -8.8017
lfingers 7.12502
lthumb 13.3989 20.7474
rfemur 2.97228 -1.20161 28.5958
rtibia 29.3726
rfoot -17.8379 -10.7918
rtoes 6.73176
lfemur -12.889 2.04928 -13.9751
ltibia 55.8146
lfoot -12.7898 -4.02248
ltoes -19.2786
298
root 12.9288 17.4194 -2.92559 183.763 77.1671 -167.221
lowerback 12.5232 -0.596395 3.42659
upperback 10.6707 0.249262 1.24667
thorax 4.22712 0.613545 -0.611682
lowerneck -1.73306 -8.24729 -7.26674
upperneck 2.7433 -11.183 11.0269
head 2.13475 -5.46366 4.12059
rclavicle -1.88845e-015 1.98785e-014
rhumerus -32.9242 13.5991 -90.6466
rradius 26.9276
rwrist -6.24923
rhand -16.954 1.6069
rfingers 7.12502
rthumb 9.27969 -28.1689
lclavicle -1.88845e-015 1.98785e-014
lhumerus -19.7884 -8.83548 87.6712
lradius 22.3951
lwrist 17.1363
lhand -12.5933 -8.60359
lfingers 7.12502
lthumb 13.4852 20.9398
rfemur 3.36605 -1.20391 28.6278
rtibia 29.063
rfoot -17.859 -10.7926
rtoes 6.63191
lfemur -13.5564 2.28347 -14.0512
ltibia 55.617
lfoot -12.6087 -4.18099
ltoes -18.3054
299
root 12.9908 17.4209 -2.92458 183.771 77.2327 -167.184
lowerback 12.4598 -0.525516 3.44784
upperback 10.6109 0.335471 1.19006
thorax 4.20018 0.655482 -0.690822
lowerneck -1.62012 -8.24023 -7.20909
upperneck 2.91765 -11.1878 10.933
head 2.15934 -5.46683 4.08505
rclavicle 1.02871e-014 3.97569e-016
rhumerus -32.879 13.4658 -90.7027
rradius 26.9167
rwrist -6.1508
rhand -16.9678 1.68896
rfingers 7.12502
rthumb 9.26639 -28.0874
lclavicle 1.02871e-014 3.97569e-016
lhumerus -20.0746 -8.35116 87.584
lradius 21.728
lwrist 16.8878
lhand -12.5507 -8.35107
lfingers 7.12502
lthumb 13.5262 21.1896
rfemur 3.79054 -1.24629 28.6556
rtibia 28.7459
rfoot -17.9251 -10.719
rtoes 6.60753
lfemur -14.1697 2.56481 -14.1086
ltibia 55.3168
lfoot -12.4314 -4.37425
ltoes -17.4497
300
root 13.0537 17.4207 -2.92391 183.782 77.281 -167.16
lowerback 12.3821 -0.45954 3.4459
upperback 10.5539 0.412384 1.1569
thorax 4.18334 0.690741 -0.731367
lowerneck -1.50387 -8.22579 -7.19621
upperneck 3.05802 -11.18 10.8569
head 2.17577 -5.46474 4.06322
rclavicle -3.70733e-014 1.47101e-014
rhumerus -32.8101 13.2643 -90.6946
rradius 26.9023
rwrist -5.98258
rhand -16.9923 1.8765
rfingers 7.12502
rthumb 9.2428 -27.9009
lclavicle -3.70733e-014 1.47101e-014
lhumerus -20.3308 -7.81292 87.5142
lradius 21.0426
lwrist 16.6489
lhand -12.5301 -7.98734
lfingers 7.12502
lthumb 13.5462 21.552
rfemur 4.20316 -1.29747 28.6812
rtibia 28.4248
rfoot -17.9898 -10.6454
rtoes 6.89804
lfemur -14.76 2.78777 -14.1849
ltibia 54.9
lfoot -12.1969 -4.51358
ltoes -16.8208
